<svg width="25" height="25" viewBox="0 0 25 25" fill="none" xmlns="http://www.w3.org/2000/svg">
<path fill-rule="evenodd" clip-rule="evenodd" d="M2.30396 12.3884C2.30396 8.19706 2.30396 6.10137 3.35436 4.65561C3.6936 4.18869 4.10422 3.77807 4.57114 3.43883C6.0169 2.38843 8.11258 2.38843 12.304 2.38843C16.4953 2.38843 18.591 2.38843 20.0368 3.43883C20.5037 3.77807 20.9143 4.18869 21.2535 4.65561C22.304 6.10137 22.304 8.19706 22.304 12.3884C22.304 16.5798 22.304 18.6755 21.2535 20.1212C20.9143 20.5882 20.5037 20.9988 20.0368 21.338C18.591 22.3884 16.4953 22.3884 12.304 22.3884C8.11258 22.3884 6.0169 22.3884 4.57114 21.338C4.10422 20.9988 3.6936 20.5882 3.35436 20.1212C2.30396 18.6755 2.30396 16.5798 2.30396 12.3884ZM12.304 7.09431C9.38028 7.09431 7.00984 9.46475 7.00984 12.3884C7.00984 15.3121 9.38028 17.6825 12.304 17.6825C15.2276 17.6825 17.5981 15.3121 17.5981 12.3884C17.5981 9.46475 15.2276 7.09431 12.304 7.09431ZM12.304 15.6973C10.4801 15.6973 8.99513 14.2123 8.99513 12.3884C8.99513 10.5633 10.4801 9.0796 12.304 9.0796C14.1278 9.0796 15.6128 10.5633 15.6128 12.3884C15.6128 14.2123 14.1278 15.6973 12.304 15.6973ZM18.7006 6.69726C18.7006 7.08686 18.3847 7.4027 17.9951 7.4027C17.6055 7.4027 17.2897 7.08686 17.2897 6.69726C17.2897 6.30765 17.6055 5.99182 17.9951 5.99182C18.3847 5.99182 18.7006 6.30765 18.7006 6.69726Z" fill="white"/>
</svg>
